<svg xmlns="http://www.w3.org/2000/svg" width="210.999" height="119.978" viewBox="0 0 210.999 119.978">
  <g id="Group_768" data-name="Group 768" transform="translate(-895 -200.415)">
    <path id="user-friends-solid" d="M56.626,71.124A29.962,29.962,0,1,0,26.708,41.162h0A29.918,29.918,0,0,0,56.626,71.124Zm20.539,8.685H74.951a41.469,41.469,0,0,1-36.649,0H36.087A30.83,30.83,0,0,0,5.3,110.465v7.686a13.027,13.027,0,0,0,13.027,13.027H95.186a13.027,13.027,0,0,0,13.027-13.027v-7.686A30.83,30.83,0,0,0,77.165,79.808Zm56.45-8.685a25.663,25.663,0,1,0-25.663-25.663h0A25.706,25.706,0,0,0,133.615,71.124Zm13.027,8.685H145.6a33.523,33.523,0,0,1-23.622,0h-1.172a29.918,29.918,0,0,0-14.894,4.342,39.081,39.081,0,0,1,10.6,26.662V122.8h47.027a13.027,13.027,0,0,0,13.027-13.027h0a29.962,29.962,0,0,0-30.092-29.962Z" transform="translate(889.7 189.215)" fill="#7c7a7a"/>
    <path id="Union_2" data-name="Union 2" d="M-5544.557,128V109.557H-5563V99.443h18.444V81h10.113V99.443H-5516v10.113h-18.443V128Z" transform="translate(6622 125)" fill="#7c7a7a"/>
  </g>
</svg>
