<svg xmlns="http://www.w3.org/2000/svg" width="136.32" height="118.446" viewBox="0 0 136.32 118.446">
  <g id="Group_767" data-name="Group 767" transform="translate(-549.68 -200.415)">
    <path id="user-solid_1_" data-name="user-solid (1)" d="M51.82,59.223A29.612,29.612,0,1,0,22.209,29.612,29.609,29.609,0,0,0,51.82,59.223Zm20.728,7.4H68.685a40.271,40.271,0,0,1-33.729,0H31.092A31.1,31.1,0,0,0,0,97.718v9.624a11.107,11.107,0,0,0,11.1,11.1H92.536a11.107,11.107,0,0,0,11.1-11.1V97.718A31.1,31.1,0,0,0,72.548,66.626Z" transform="translate(549.68 200.415)" fill="#7c7a7a"/>
    <path id="Union_1" data-name="Union 1" d="M-5544.557,128V109.557H-5563V99.443h18.444V81h10.113V99.443H-5516v10.113h-18.443V128Z" transform="translate(6202 125)" fill="#7c7a7a"/>
  </g>
</svg>
