<svg xmlns="http://www.w3.org/2000/svg" width="151" height="100.667" viewBox="0 0 151 100.667">
  <path id="cadmin-icons_system" d="M158,75.917v25.167a12.583,12.583,0,0,1-12.583,12.583H19.583A12.583,12.583,0,0,1,7,101.084V75.917A12.583,12.583,0,0,1,19.583,63.334H145.417A12.583,12.583,0,0,1,158,75.917ZM145.417,54.945a20.469,20.469,0,0,1,8.053,1.636L128.3,18.83A12.583,12.583,0,0,0,117.692,13H47.309a12.583,12.583,0,0,0-10.486,5.621L11.656,56.58a20.469,20.469,0,0,1,7.928-1.636ZM132.834,80.111a8.389,8.389,0,1,0,8.389,8.389A8.389,8.389,0,0,0,132.834,80.111Zm-25.167,0a8.389,8.389,0,1,0,8.389,8.389A8.389,8.389,0,0,0,107.667,80.111Z" transform="translate(-7 -13)" fill="#7c7a7a"/>
</svg>
